<svg id="Layer_1" data-name="Layer 1" xmlns="http://www.w3.org/2000/svg" viewBox="0 0 512 512">
  <defs>
    <style>
      .cls-1, .cls-2, .cls-3 {
        fill: #0b698b;
      }

      .cls-1 {
        opacity: 0.8;
      }

      .cls-2 {
        opacity: 0.5;
      }
    </style>
  </defs>
  <g>
    <path class="cls-1" d="M208,383.9h96v48H208Z"/>
    <path class="cls-1" d="M352,220.06v3.84H296v-96l22.48,19.28A96,96,0,0,1,352,220.06Z"/>
    <path class="cls-1" d="M304,431.9v8a48,48,0,0,1-96,0h0v-8Z"/>
    <path class="cls-2" d="M296,127.9v80H216V105.5a64.25,64.25,0,0,1,.64-9.6h78.72a64.25,64.25,0,0,1,.64,9.6Zm-24,16a16,16,0,1,0-16,16A16,16,0,0,0,272,143.9Z"/>
    <path class="cls-2" d="M272,239.9l8,24H232l8-24Z"/>
    <path class="cls-1" d="M256,287.9a16,16,0,0,1,16,16c0,8.8-16,32-16,32s-16-23.2-16-32A16,16,0,0,1,256,287.9Z"/>
    <path class="cls-1" d="M216,207.9v16H160v-.24a95.89,95.89,0,0,1,28.08-67.84L216,127.9Z"/>
    <g>
      <path class="cls-3" d="M432,215.9h32v16H432Z"/>
      <path class="cls-3" d="M103.25,82.49l11.31-11.32L137.18,93.8l-11.31,11.31Z"/>
      <path class="cls-3" d="M48,215.9H80v16H48Z"/>
      <path class="cls-3" d="M103.22,365.29l22.63-22.62L137.16,354l-22.63,22.63Z"/>
      <path class="cls-3" d="M374.72,354.06,386,342.75l22.63,22.62-11.32,11.31Z"/>
      <path class="cls-3" d="M256,119.9a24,24,0,1,0,24,24A24,24,0,0,0,256,119.9Zm0,32a8,8,0,1,1,8-8A8,8,0,0,1,256,151.9Z"/>
      <path class="cls-3" d="M256,279.9a24,24,0,0,0-24,24c0,10.22,12.18,29,17.42,36.54a8,8,0,0,0,13.16,0c5.24-7.58,17.42-26.32,17.42-36.54A24,24,0,0,0,256,279.9Zm0,41.17a59.39,59.39,0,0,1-8-17.17,8,8,0,0,1,16,0A59.39,59.39,0,0,1,256,321.07Z"/>
      <path class="cls-3" d="M312,239.9h16v32H312Z"/>
      <path class="cls-3" d="M336,239.9h16v16H336Z"/>
      <path class="cls-3" d="M184,239.9h16v32H184Z"/>
      <path class="cls-3" d="M160,239.9h16v16H160Z"/>
      <path class="cls-3" d="M416,223.9A158.91,158.91,0,0,0,296.06,69.13a87.09,87.09,0,0,0-8.45-14.73l-25.1-35.15a8.3,8.3,0,0,0-13,0L224.39,54.4A87.75,87.75,0,0,0,216,69a159.9,159.9,0,0,0-16,304.68v2.18H184v16h16v48a56,56,0,0,0,112,0v-48h16v-16H312v-2.18A159.84,159.84,0,0,0,416,223.9ZM237.42,63.69l18.58-26,18.59,26a71.44,71.44,0,0,1,11,24.21H226.4a71.27,71.27,0,0,1,11-24.21ZM224,105.54c0-.55.11-1.09.13-1.64h63.74c0,.55.13,1.09.13,1.64V199.9H224Zm0,110.36h64v16H224Zm44.9,40H243.1l2.67-8h20.46Zm15.34,212.29A39.45,39.45,0,0,1,256,479.9a40.05,40.05,0,0,1-40-40h80A39.46,39.46,0,0,1,284.24,468.19ZM296,423.9H216v-32h80Zm-80-48v-7.84a8,8,0,0,0-5.47-7.6,143.9,143.9,0,0,1-.62-272.95,87.43,87.43,0,0,0-1.91,18v19l-25.54,25.53A103.49,103.49,0,0,0,152,223.9a8,8,0,0,0,8,8h48v8a8,8,0,0,0,8,8h12.9l-4.49,13.47A8,8,0,0,0,232,271.9h48a8,8,0,0,0,7.59-10.53L283.1,247.9H296a8,8,0,0,0,8-8v-8h48a8,8,0,0,0,8-8v-3.84a103.86,103.86,0,0,0-36.32-79L304,124.22V105.54a87.43,87.43,0,0,0-1.91-18,143.94,143.94,0,0,1-.62,273,8,8,0,0,0-5.47,7.59v7.84Zm-8-228.69V215.9H168.34a87.27,87.27,0,0,1,25.44-54.46Zm96,68.69V145.29l9.27,8A87.87,87.87,0,0,1,343.9,215.9Z"/>
      <path class="cls-3" d="M374.74,93.83,397.36,71.2l11.31,11.31-22.62,22.63Z"/>
    </g>
  </g>
</svg>
