<svg id="Layer_1" data-name="Layer 1" xmlns="http://www.w3.org/2000/svg" viewBox="0 0 512 512">
  <defs>
    <style>
      .cls-1 {
        opacity: 0.5;
      }

      .cls-2 {
        fill: #0b698b;
      }
    </style>
  </defs>
  <g>
    <g class="cls-1">
      <path class="cls-2" d="M287.76,273.36,280,320H232l-7.76-46.64A79.3,79.3,0,0,0,287.76,273.36Z"/>
      <path class="cls-2" d="M392,360V488H256l31-65.76v-.08L304,408l-3.76-13.92L320,352l-16-24,24-16V257.68A79.92,79.92,0,0,1,392,336Z"/>
      <path class="cls-2" d="M120,360V336a79.92,79.92,0,0,1,64-78.32V312l24,16-16,24,19.76,42.08L208,408l17,14.16v.08L256,488H120Z"/>
      <path class="cls-2" d="M176,104H160V88A64,64,0,0,1,272.4,46.16,48.05,48.05,0,0,1,344,88v16Z"/>
    </g>
    <path class="cls-2" d="M328.58,249.65A87.34,87.34,0,0,0,344,200V184h8a24,24,0,0,0,24-24V144a24,24,0,0,0-24-24h-8v-8h8V96H152v16h16v8h-8a24,24,0,0,0-24,24v16a24,24,0,0,0,24,24h8v16a87.34,87.34,0,0,0,15.42,49.65A88.36,88.36,0,0,0,112,336V488a8,8,0,0,0,8,8H392a8,8,0,0,0,8-8V336a88.36,88.36,0,0,0-71.42-86.35Zm-31.24,82.79,13.5,20.24-8.62,18.4-14-51.47,6.8-40.8a88.1,88.1,0,0,0,21-14.62c1.34.08,2.68.11,4,.26v43.27l-20.44,13.6a8,8,0,0,0-2.24,11.09l0,0ZM256,437.6l-38.93-32.44,21-77.16h35.78l21,77.14Zm8.34,13.87L256,469.2l-8.34-17.75,3.2,2.69a8,8,0,0,0,10.24,0Zm-51.9-130.13L192,307.72V264.45c1.32-.15,2.66-.18,4-.26a87.94,87.94,0,0,0,21,14.58l6.8,40.8-14,51.47-8.62-18.4,13.5-20.24a8,8,0,0,0-2.22-11.06ZM273.22,312H238.78l-4.48-26.82a84.9,84.9,0,0,0,43.4,0ZM352,136a8,8,0,0,1,8,8v16a8,8,0,0,1-8,8h-8V136Zm-24-24v88a72,72,0,0,1-144,0V112ZM160,168a8,8,0,0,1-8-8V144a8,8,0,0,1,8-8h8v32ZM128,368h24V352H128V336a72.31,72.31,0,0,1,48-67.79V312a8,8,0,0,0,3.56,6.65l17.34,11.56-11.56,17.35a8,8,0,0,0-.58,7.84l18.53,39.46-3,11a8,8,0,0,0,2.6,8.25l15.7,13.06,24.8,52.8H128ZM268.6,480l24.8-52.8,15.7-13.09a8,8,0,0,0,2.6-8.25l-3-11,18.52-39.46a8,8,0,0,0-.58-7.84l-11.56-17.35,17.34-11.56A8,8,0,0,0,336,312V268.21A72.31,72.31,0,0,1,384,336v16H360v16h24V480Z"/>
    <path class="cls-2" d="M224,176a8,8,0,0,0,8-8V152a8,8,0,0,0-16,0v16A8,8,0,0,0,224,176Z"/>
    <path class="cls-2" d="M288,176a8,8,0,0,0,8-8V152a8,8,0,0,0-16,0v16A8,8,0,0,0,288,176Z"/>
    <path class="cls-2" d="M224,32a55.7,55.7,0,0,1,42.33,19.37,8,8,0,0,0,10,1.76A40.07,40.07,0,0,1,336,88h16a56.08,56.08,0,0,0-77.81-51.62A72,72,0,0,0,152,88h16a56.06,56.06,0,0,1,56-56Z"/>
  </g>
</svg>
