<svg id="Layer_1" data-name="Layer 1" xmlns="http://www.w3.org/2000/svg" viewBox="0 0 512 512">
  <defs>
    <style>
      .cls-1, .cls-2 {
        fill: #0b698b;
      }

      .cls-1 {
        opacity: 0.5;
      }
    </style>
  </defs>
  <path class="cls-1" d="M392,216a135.74,135.74,0,0,1-67,117.2L292.48,278a72,72,0,1,0-73,0L187,333.2A136,136,0,1,1,392,216Z"/>
  <path class="cls-1" d="M256,432,136,488H96l62.72-106.56L187,333.2,219.52,278l20.24-34.48L256,216l16.24,27.52L292.48,278,325,333.2l28.32,48.24L416,488H376Z"/>
  <g>
    <path class="cls-2" d="M364.12,384C457.05,324.29,484,200.55,424.26,107.62S240.81-12.22,147.88,47.49,28,230.94,87.74,323.86A200.08,200.08,0,0,0,147.88,384L89.1,483.94A8,8,0,0,0,96,496h40a8.05,8.05,0,0,0,3.38-.75L256,440.8l116.62,54.4a8.07,8.07,0,0,0,3.38.8h40a8,8,0,0,0,6.9-12.06ZM72,216C71.88,114.38,154.17,31.9,255.79,31.79S439.88,114,440,215.57a184,184,0,0,1-84,154.67l-20.24-34.4a144,144,0,1,0-159.54,0L156,370.24A184.65,184.65,0,0,1,72,216Zm165.74,15.27a24,24,0,1,1,36.52,0L262.9,211.94a8.33,8.33,0,0,0-11.55-2.24,8.41,8.41,0,0,0-2.25,2.24ZM256,176a39.88,39.88,0,0,0-26.7,69.6l-12.36,21a64,64,0,1,1,78.12,0l-12.36-21A39.89,39.89,0,0,0,256,176Zm80,40a80,80,0,1,0-127.2,64.41L184.32,322a128,128,0,1,1,143.3,0l-24.48-41.6A80,80,0,0,0,336,216Zm41.78,264L264,426.9V392H248v34.9L134.22,480H110L256,231.78,402,480Z"/>
    <path class="cls-2" d="M248,264h16v16H248Z"/>
    <path class="cls-2" d="M248,296h16v24H248Z"/>
    <path class="cls-2" d="M248,336h16v32H248Z"/>
  </g>
</svg>
