<?xml version="1.0" encoding="UTF-8"?><svg id="Capa_1" xmlns="http://www.w3.org/2000/svg" viewBox="0 0 512 512"><defs><style>.cls-1{opacity:.1;}.cls-2{fill:#f8b64c;}.cls-3{fill:#f2f2f2;}.cls-4{fill:#0396a6;}.cls-5{fill:#ffd15c;}.cls-6{fill:#9cd3d8;}.cls-7{fill:#cdd6e0;}.cls-8{fill:#acb3ba;}.cls-9{fill:#40596b;}.cls-10{fill:#0b698b;}</style></defs><path class="cls-3" d="M512,434.02v77.01H0v-77.01c0-20.37,12.48-38.73,31.46-46.08l107.96-42.45,84.27,92.6,26.44-53.87v-.11l5.88-12.06,5.98,12.06,26.45,53.97,84.15-92.6,108.06,42.45c18.87,7.47,31.35,25.71,31.35,46.08"/><path class="cls-2" d="M331.52,329.48h.11v-43.84c-5.6,8.49-12.11,17.11-19.67,25.73l-10.45,11.52c-9.6,10.44-23.25,16.53-37.44,16.53h-16c-14.19,0-27.85-6.08-37.44-16.53l-10.45-11.52c-7.65-8.69-14.23-17.43-19.85-26.01v44.04l.17,.08,65.81,37.12,9.71,5.44,9.71-5.44,65.8-37.13Z"/><g class="cls-1"><path class="cls-9" d="M229.02,335.52c-.06-.02-.13-.04-.19-.06-.11-.04-.22-.08-.33-.11-.11-.05-.22-.06-.37-.12l40.22,29.88,63.17-35.63h.06l.04-43.62c-.11,.16-15,19.67-19.67,25.48l-10.45,11.53c-9.6,10.44-23.25,16.53-37.44,16.53h-16c-3.23,0-6.4-.35-9.5-1.01-3.29-.63-6.45-1.61-9.54-2.88"/></g><g><path class="cls-2" d="M181.14,196.31c1.66,19.15-7.63,35.6-20.75,36.74-13.14,1.15-25.14-13.45-26.84-32.6-1.66-19.15,7.63-35.58,20.77-36.74,13.13-1.15,25.15,13.44,26.82,32.6"/><path class="cls-2" d="M378.54,200.47c-1.66,19.15-13.68,33.74-26.82,32.59-13.14-1.15-22.44-17.59-20.75-36.74,1.66-19.15,13.68-33.75,26.82-32.6,13.14,1.13,22.43,17.59,20.75,36.75"/></g><path class="cls-5" d="M364.85,196.37c-2.02,21.44-12.17,68.68-52.9,114.98l-10.45,11.52c-9.6,10.45-23.25,16.54-37.44,16.54h-16c-14.19,0-27.85-6.08-37.44-16.54l-10.45-11.52c-40.75-46.29-50.77-93.55-52.92-114.98-2.88-29.55-1.71-67.09,0-76.8,9.71-56.85,58.36-92.16,108.81-92.16s99.08,35.31,108.79,92.16c1.71,9.71,2.88,47.26,0,76.8"/><path class="cls-9" d="M172.9,54.37s.75-71.82,105.16-48.88c0,0,51.81,16.28,85.14,64.43,0,0,31.27,45.42,14.27,83.63-5.52,12.4-11.46,26.6-10.77,38.01,0,0-5.79-24.2-9.25-44.37-2.89-16.9-10.17-32.72-21.33-45.72l-.33-.39c-18.08-20.94-46.38-30.73-73.14-23.83-12.77,3.3-27.3,9.73-43.27,21.13,0,0-43.5-29.19-65,21.91,0,0-9.58,37.35-8.22,66.86,0-.01-59.87-125.37,26.75-132.77"/><path class="cls-8" d="M398.6,375.35c-.21-1.81-.63-18.44-4.04-25.16-5.77-11.32-16.11-18.88-28.59-20.8l-34.35-6.93v7.04h-.11l-4.92,2.77,37.66,7.68c9.07,1.39,16.65,6.83,20.69,15.03,2.67,5.23,3.76,10.89,2.89,16.44l-.22,2.77c-45.12,39.15-57.92,74.45-58.45,76.05-3.39,10.13-3.19,18.13,.54,23.89,4.17,6.51,10.98,7.25,11.83,7.36l1.07-10.67c-.11,0-2.67-.44-4.04-2.67-1.71-2.78-1.5-7.89,.75-14.41,.11-.22,6.4-17.59,25.6-41.08,5.33-2.67,11.3-3.19,17.07-1.49,5.55,1.71,10.23,5.45,13.12,10.44,2.12,30.84-2.56,48.97-2.67,49.08-2.04,6.61-4.81,10.99-7.89,12.16-2.45,1.08-4.7-.11-4.7-.21l-2.67,4.68-2.77,4.62c.44,.32,3.73,2.13,8.11,2.13,1.81,0,3.76-.32,5.77-1.17,6.4-2.44,11.32-8.85,14.5-19.09,.44-1.6,10.35-38.84-4.17-98.46m-14.17,27.63c-3.21-.96-6.62-1.38-9.83-1.27,4.61-5.02,9.71-10.13,15.48-15.35,1.6,7.46,2.77,14.6,3.63,21.33-2.77-2.05-5.88-3.64-9.27-4.71"/><g><path class="cls-6" d="M350.93,478.04c-.85,4.29-5.02,7.08-9.31,6.24-4.27-.84-1.23-16.38,3.06-15.54,4.29,.84,7.09,5.01,6.25,9.3"/><path class="cls-6" d="M368.22,483.37c-1.81,3.98-.08,8.67,3.89,10.5,3.98,1.82,10.58-12.57,6.6-14.4-3.95-1.82-8.66-.08-10.5,3.9"/></g><path class="cls-8" d="M180.48,329.48l-.17-.08v-6.95l-23.06,4.75c-24.61,5.07-45.31,20.77-56.85,43.06-11.52,22.32-12.35,48.3-2.25,71.3l9.77-4.29c-8.79-20.03-8.11-42.66,1.96-62.1,10.04-19.41,28.08-33.1,49.5-37.5l26.06-5.36-4.96-2.81Z"/><g><polygon class="cls-7" points="372.59 345.48 293.88 448.74 256 372.04 265.71 366.6 331.52 329.48 331.63 329.48 331.73 329.38 372.59 345.48"/><polygon class="cls-7" points="139.41 345.48 218.25 448.74 256 372.04 246.29 366.6 180.48 329.48 180.27 329.38 139.41 345.48"/></g><polygon class="cls-10" points="218.25 511.03 239.79 461.96 230.5 448.31 223.69 438.07 250.12 384.11 256 372.04 261.98 384.11 261.98 384.21 288.44 438.07 281.5 448.21 272.21 461.96 293.88 511.03 218.25 511.03"/><polygon class="cls-4" points="288.44 438.07 281.5 448.21 256.11 396.26 230.5 448.31 223.69 438.07 250.12 384.11 256 372.04 261.98 384.11 261.98 384.21 288.44 438.07"/><path class="cls-6" d="M135.1,458.25c0,13.33-10.84,24.16-24.17,24.16s-24.15-10.83-24.15-24.16,10.82-24.15,24.15-24.15,24.17,10.81,24.17,24.15"/><path class="cls-3" d="M127.17,458.25c0,8.96-7.25,16.22-16.21,16.22s-16.25-7.27-16.25-16.22,7.28-16.22,16.25-16.22,16.21,7.26,16.21,16.22"/><path class="cls-8" d="M122.32,458.25c0,6.29-5.09,11.37-11.35,11.37s-11.39-5.09-11.39-11.37,5.11-11.36,11.39-11.36c6.26,0,11.35,5.09,11.35,11.36"/></svg>