<?xml version="1.0" encoding="UTF-8"?><svg id="Capa_1" xmlns="http://www.w3.org/2000/svg" viewBox="0 0 512 512"><defs><style>.cls-1{fill:#0396a6;}.cls-2{fill:#fff;}.cls-3{fill:#9cd3d8;}.cls-4{fill:#0b698b;}</style></defs><path class="cls-1" d="M391.72,8.83H23.17C10.37,8.83,0,19.2,0,32V480c0,12.8,10.37,23.17,23.17,23.17H391.72c12.8,0,23.17-10.37,23.17-23.17V32c0-12.8-10.37-23.17-23.17-23.17Z"/><path class="cls-2" d="M300.14,44.14H44.25c-4.93,0-8.94,4.01-8.94,8.94V458.91c0,4.94,4.01,8.95,8.94,8.95H370.64c4.94,0,8.95-4.01,8.95-8.94V53.08c0-4.93-4.01-8.94-8.94-8.94h-70.51Z"/><path class="cls-4" d="M512,441.38l-26.48,35.31-26.48-35.31V22.34c0-7.46,6.06-13.52,13.52-13.52h25.94c7.46,0,13.52,6.06,13.52,13.52V441.38Z"/><path class="cls-3" d="M485.25,512c-4.87,0-8.83-3.95-8.83-8.83v-52.97c0-4.88,3.95-8.83,8.83-8.83s8.83,3.95,8.83,8.83v52.97c0,4.88-3.95,8.83-8.83,8.83Z"/><path class="cls-1" d="M512,61.79h-52.97V22.34c0-7.46,6.06-13.52,13.52-13.52h25.94c7.46,0,13.52,6.06,13.52,13.52V61.79Z"/><path class="cls-1" d="M458.77,441.38l18.68,24.91c3.9,5.2,11.7,5.2,15.6,0l18.69-24.91v-52.97h-52.97v52.97Z"/><path class="cls-1" d="M459.03,176.55h52.97v70.62h-52.97v-70.62Z"/><circle class="cls-4" cx="211.86" cy="194.21" r="88.28"/><path class="cls-2" d="M253.33,176.55h-23.82v-23.82c0-6.35-5.15-11.49-11.49-11.49h-12.32c-6.35,0-11.49,5.15-11.49,11.49v23.82h-23.82c-6.35,0-11.49,5.15-11.49,11.49v12.32c0,6.35,5.15,11.49,11.49,11.49h23.82v23.82c0,6.35,5.15,11.49,11.49,11.49h12.32c6.35,0,11.49-5.15,11.49-11.49v-23.82h23.82c6.35,0,11.49-5.15,11.49-11.49v-12.32c0-6.35-5.15-11.49-11.49-11.49Z"/><g><path class="cls-4" d="M291.31,388.41h-105.93c-4.87,0-8.83-3.95-8.83-8.83s3.95-8.83,8.83-8.83h105.93c4.87,0,8.83,3.95,8.83,8.83s-3.95,8.83-8.83,8.83Z"/><path class="cls-4" d="M150.07,388.41H70.62c-4.87,0-8.83-3.95-8.83-8.83s3.95-8.83,8.83-8.83h79.45c4.87,0,8.83,3.95,8.83,8.83s-3.95,8.83-8.83,8.83Z"/><path class="cls-4" d="M344.28,388.41h-17.66c-4.87,0-8.83-3.95-8.83-8.83s3.95-8.83,8.83-8.83h17.66c4.87,0,8.83,3.95,8.83,8.83s-3.95,8.83-8.83,8.83Z"/><path class="cls-4" d="M229.52,344.28H123.59c-4.87,0-8.83-3.95-8.83-8.83s3.95-8.83,8.83-8.83h105.93c4.87,0,8.83,3.95,8.83,8.83s-3.95,8.83-8.83,8.83Z"/><path class="cls-4" d="M344.28,344.28h-79.45c-4.87,0-8.83-3.95-8.83-8.83s3.95-8.83,8.83-8.83h79.45c4.87,0,8.83,3.95,8.83,8.83s-3.95,8.83-8.83,8.83Z"/><path class="cls-4" d="M88.28,344.28h-17.66c-4.87,0-8.83-3.95-8.83-8.83s3.95-8.83,8.83-8.83h17.66c4.87,0,8.83,3.95,8.83,8.83s-3.95,8.83-8.83,8.83Z"/><path class="cls-4" d="M229.52,432.55H123.59c-4.87,0-8.83-3.95-8.83-8.83s3.95-8.83,8.83-8.83h105.93c4.87,0,8.83,3.95,8.83,8.83s-3.95,8.83-8.83,8.83Z"/><path class="cls-4" d="M344.28,432.55h-79.45c-4.87,0-8.83-3.95-8.83-8.83s3.95-8.83,8.83-8.83h79.45c4.87,0,8.83,3.95,8.83,8.83s-3.95,8.83-8.83,8.83Z"/><path class="cls-4" d="M88.28,432.55h-17.66c-4.87,0-8.83-3.95-8.83-8.83s3.95-8.83,8.83-8.83h17.66c4.87,0,8.83,3.95,8.83,8.83s-3.95,8.83-8.83,8.83Z"/></g><path class="cls-1" d="M284.8,70.62H138.92c-8.47,0-15.33-6.87-15.33-15.33V15.33C123.59,6.87,130.45,0,138.92,0h145.88C293.27,0,300.14,6.87,300.14,15.33V55.29c0,8.47-6.87,15.33-15.33,15.33Z"/></svg>