<?xml version="1.0" encoding="UTF-8"?><svg id="Capa_1" xmlns="http://www.w3.org/2000/svg" viewBox="0 0 512 512"><defs><style>.cls-1{fill:#e7eced;}.cls-2{fill:#fff;}.cls-3{fill:#9cd3d8;}.cls-4{fill:#afb6bb;}.cls-5{fill:#0b698b;}</style></defs><path class="cls-3" d="M105.93,44.14V432.55H388.41V44.14H105.93Z"/><path class="cls-1" d="M105.93,488.92c0,12.75,10.34,23.08,23.08,23.08h236.32c12.74,0,23.08-10.34,23.08-23.08v-65.19H105.93v65.19Z"/><path class="cls-1" d="M365.33,0H129.02C116.27,0,105.93,10.34,105.93,23.08v29.88H388.41V23.08C388.41,10.34,378.08,0,365.33,0Z"/><path class="cls-4" d="M291.31,35.31h-88.28c-4.87,0-8.83-3.95-8.83-8.83s3.95-8.83,8.83-8.83h88.28c4.87,0,8.83,3.95,8.83,8.83s-3.95,8.83-8.83,8.83Z"/><path class="cls-4" d="M353.1,35.31h-8.83c-4.87,0-8.83-3.95-8.83-8.83s3.95-8.83,8.83-8.83h8.83c4.87,0,8.83,3.95,8.83,8.83s-3.95,8.83-8.83,8.83Z"/><path class="cls-4" d="M258.13,485.52h-21.92c-8.57,0-15.52-6.95-15.52-15.53v-4.26c0-8.57,6.95-15.52,15.53-15.52h21.92c8.57,0,15.52,6.95,15.52,15.53v4.26c0,8.57-6.95,15.52-15.53,15.52Z"/><path class="cls-5" d="M282.48,105.9v123.65c0,9.74,7.89,17.63,17.62,17.63h26.52v44.14l35.31-44.14h132.45c9.73,0,17.62-7.89,17.62-17.62V105.9c0-9.73-7.89-17.62-17.62-17.62h-194.28c-9.73,0-17.62,7.89-17.62,17.62h0Z"/><path class="cls-2" d="M441.38,150.07h-26.48v-26.48h-35.31v26.48h-26.48v35.31h26.48v26.48h35.31v-26.48h26.48v-35.31Z"/><path class="cls-5" d="M229.52,203v123.65c0,9.74-7.89,17.63-17.62,17.63h-26.52v44.14l-35.31-44.14H17.62C7.89,344.28,0,336.38,0,326.66v-123.65C0,193.27,7.89,185.38,17.62,185.38H211.89c9.74,0,17.63,7.89,17.63,17.62h0Z"/><g><path class="cls-2" d="M141.24,238.34H35.31c-4.87,0-8.83-3.95-8.83-8.83s3.95-8.83,8.83-8.83h105.93c4.87,0,8.83,3.95,8.83,8.83s-3.95,8.83-8.83,8.83Z"/><path class="cls-2" d="M194.21,238.34h-17.66c-4.87,0-8.83-3.95-8.83-8.83s3.95-8.83,8.83-8.83h17.66c4.87,0,8.83,3.95,8.83,8.83s-3.95,8.83-8.83,8.83Z"/><path class="cls-2" d="M141.24,308.97H35.31c-4.87,0-8.83-3.95-8.83-8.83s3.95-8.83,8.83-8.83h105.93c4.87,0,8.83,3.95,8.83,8.83s-3.95,8.83-8.83,8.83Z"/><path class="cls-2" d="M194.21,308.97h-17.66c-4.87,0-8.83-3.95-8.83-8.83s3.95-8.83,8.83-8.83h17.66c4.87,0,8.83,3.95,8.83,8.83s-3.95,8.83-8.83,8.83Z"/><path class="cls-2" d="M194.21,273.66H88.28c-4.87,0-8.83-3.95-8.83-8.83s3.95-8.83,8.83-8.83h105.93c4.87,0,8.83,3.95,8.83,8.83s-3.95,8.83-8.83,8.83Z"/><path class="cls-2" d="M52.97,273.66h-17.66c-4.87,0-8.83-3.95-8.83-8.83s3.95-8.83,8.83-8.83h17.66c4.87,0,8.83,3.95,8.83,8.83s-3.95,8.83-8.83,8.83Z"/></g></svg>